<svg width="15" height="15" viewBox="0 0 15 15" fill="none" xmlns="http://www.w3.org/2000/svg">
<path d="M4.69322 7.01922H1.70531C1.25319 7.01869 0.819755 6.83876 0.500064 6.51892C0.180373 6.19907 0.000535474 5.76542 0 5.31309L0 2.32373C0.000535474 1.8714 0.180373 1.43775 0.500064 1.1179C0.819755 0.798058 1.25319 0.618134 1.70531 0.617598H4.69322C5.14533 0.618134 5.57877 0.798058 5.89846 1.1179C6.21815 1.43775 6.39799 1.8714 6.39853 2.32373V5.31309C6.39799 5.76542 6.21815 6.19907 5.89846 6.51892C5.57877 6.83876 5.14533 7.01869 4.69322 7.01922ZM1.70531 1.29998C1.43403 1.30032 1.17395 1.40829 0.98213 1.6002C0.790306 1.79212 0.682389 2.05232 0.682048 2.32373V5.31309C0.682389 5.5845 0.790306 5.8447 0.98213 6.03662C1.17395 6.22854 1.43403 6.3365 1.70531 6.33684H4.69322C4.9645 6.3365 5.22457 6.22854 5.4164 6.03662C5.60822 5.8447 5.71614 5.5845 5.71648 5.31309V2.32373C5.71614 2.05232 5.60822 1.79212 5.4164 1.6002C5.22457 1.40829 4.9645 1.30032 4.69322 1.29998H1.70531ZM4.69451 15H1.70659C1.25461 14.9995 0.821281 14.8196 0.501611 14.5C0.181941 14.1803 0.00201768 13.7468 0.00128757 13.2946V10.3043C0.00177438 9.85196 0.18159 9.41826 0.501286 9.09838C0.820982 8.77849 1.25445 8.59854 1.70659 8.59801H4.69451C5.14667 8.59854 5.58016 8.77849 5.89988 9.09837C6.21961 9.41825 6.39946 9.85194 6.4 10.3043V13.2946C6.39927 13.7468 6.21932 14.1803 5.89961 14.5C5.5799 14.8197 5.14652 14.9995 4.69451 15ZM1.70659 9.28057C1.43531 9.28091 1.17524 9.38888 0.983417 9.5808C0.791593 9.77271 0.683677 10.0329 0.683336 10.3043V13.2946C0.683871 13.5659 0.791874 13.8259 0.983677 14.0177C1.17548 14.2094 1.43544 14.3173 1.70659 14.3176H4.69451C4.96568 14.3173 5.22567 14.2095 5.41748 14.0177C5.60929 13.8259 5.71728 13.5659 5.71777 13.2946V10.3043C5.71747 10.0329 5.60957 9.77267 5.41774 9.58074C5.2259 9.38881 4.9658 9.28086 4.69451 9.28057H1.70659ZM12.678 15H9.68958C9.23769 14.9993 8.8045 14.8194 8.48495 14.4998C8.1654 14.1801 7.98555 13.7467 7.98482 13.2946V10.3043C7.98536 9.85207 8.16511 9.41848 8.48468 9.09863C8.80425 8.77877 9.23755 8.59874 9.68958 8.59801H12.678C13.1302 8.59854 13.5637 8.77849 13.8834 9.09837C14.2031 9.41825 14.383 9.85194 14.3835 10.3043V13.2946C14.3828 13.7468 14.2029 14.1803 13.8831 14.5C13.5634 14.8197 13.1301 14.9995 12.678 15ZM9.68958 9.28057C9.41828 9.28086 9.15818 9.38881 8.96635 9.58074C8.77451 9.77267 8.66661 10.0329 8.66632 10.3043V13.2946C8.66681 13.5659 8.77479 13.8259 8.96661 14.0177C9.15842 14.2095 9.41841 14.3173 9.68958 14.3176H12.678C12.9492 14.3173 13.2092 14.2095 13.401 14.0177C13.5928 13.8259 13.7008 13.5659 13.7013 13.2946V10.3043C13.701 10.0329 13.5931 9.77267 13.4013 9.58074C13.2094 9.38881 12.9493 9.28086 12.678 9.28057H9.68958ZM11.1828 7.63682C10.9589 7.63765 10.737 7.59405 10.5301 7.50854C10.3231 7.42303 10.1352 7.29731 9.97707 7.13866L7.86416 5.0249C7.54489 4.70463 7.3656 4.27075 7.3656 3.81841C7.3656 3.36607 7.54489 2.9322 7.86416 2.61192L9.97707 0.498163C10.2973 0.179122 10.7309 0 11.1828 0C11.6347 0 12.0683 0.179122 12.3885 0.498163L14.5014 2.61192C14.8207 2.9322 15 3.36607 15 3.81841C15 4.27075 14.8207 4.70463 14.5014 5.0249L12.3885 7.13866C12.2305 7.29738 12.0425 7.42314 11.8356 7.50865C11.6286 7.59416 11.4067 7.63773 11.1828 7.63682ZM11.1828 0.68256C11.0485 0.681987 10.9154 0.708037 10.7913 0.759207C10.6671 0.810378 10.5543 0.885653 10.4594 0.980687L8.34682 3.09444C8.15519 3.2866 8.04758 3.54697 8.04758 3.81841C8.04758 4.08986 8.15519 4.35022 8.34682 4.54238L10.4594 6.65613C10.844 7.04112 11.5222 7.04039 11.9062 6.65613L14.0192 4.54238C14.2108 4.35022 14.3184 4.08986 14.3184 3.81841C14.3184 3.54697 14.2108 3.2866 14.0192 3.09444L11.9062 0.980687C11.8113 0.885629 11.6985 0.810337 11.5743 0.759165C11.4502 0.707993 11.3171 0.681956 11.1828 0.68256Z" fill="white"/>
</svg>
