<svg width="10" height="5" viewBox="0 0 10 5" fill="none" xmlns="http://www.w3.org/2000/svg">
<path d="M9.99995 0.829615C10.0003 0.936345 9.97676 1.0418 9.93103 1.13823C9.8853 1.23466 9.81855 1.31962 9.73569 1.38686L5.45038 4.83748C5.32258 4.94256 5.16228 5 4.99685 5C4.83142 5 4.67112 4.94256 4.54332 4.83748L0.258013 1.26541C0.112158 1.14414 0.0204347 0.96989 0.00302221 0.780981C-0.0143902 0.592071 0.0439342 0.403979 0.165165 0.258083C0.286395 0.112188 0.460601 0.0204401 0.649459 0.00302267C0.838317 -0.0143943 1.02636 0.0439458 1.17221 0.165209L5.00042 3.35864L8.82863 0.272372C8.93347 0.185011 9.06113 0.129518 9.19651 0.112458C9.33189 0.0953979 9.46932 0.117485 9.59254 0.176107C9.71576 0.234729 9.81962 0.327431 9.89182 0.443245C9.96402 0.559059 10.0015 0.693138 9.99995 0.829615Z" fill="#D6D6D6"/>
</svg>
