<svg width="15" height="15" viewBox="0 0 15 15" fill="none" xmlns="http://www.w3.org/2000/svg">
<path d="M13.57 12.4366C14.07 11.5664 13.7931 10.8981 12.9076 10.2295C11.8668 9.44335 10.8495 8.91458 10.1181 9.76159C10.1181 9.76159 9.34188 10.6856 7.05763 8.52328C4.40143 5.99128 5.51622 5.09327 5.51622 5.09327C6.44002 4.16453 5.85279 3.47168 5.07801 2.42236C4.30329 1.37305 3.52068 1.04093 2.39715 1.94339C0.232091 3.68254 3.28495 7.76609 4.82848 9.35393L4.82842 9.35405C4.82842 9.35405 7.17561 11.7819 8.65264 12.5901L9.4428 13.0319C10.5761 13.6135 11.8491 13.8797 12.7452 13.3397C12.7452 13.3397 13.1772 13.1175 13.57 12.4366Z" fill="#004EA2"/>
</svg>
