<svg width="20" height="20" viewBox="0 0 20 20" fill="none" xmlns="http://www.w3.org/2000/svg">
<path d="M13.2927 11.5628C13.8507 10.6848 14.1781 9.64314 14.1781 8.52334C14.1781 5.39462 11.6446 2.85742 8.51962 2.85742C5.3909 2.85742 2.85742 5.39462 2.85742 8.52334C2.85742 11.6521 5.3909 14.1893 8.5159 14.1893C9.65058 14.1893 10.7071 13.8544 11.5925 13.2815L11.8492 13.103L15.8894 17.1431L17.1431 15.8671L13.1067 11.8269L13.2927 11.5628ZM11.6893 5.35742C12.5338 6.20192 12.9988 7.32543 12.9988 8.51962C12.9988 9.71382 12.5338 10.8373 11.6893 11.6818C10.8448 12.5263 9.72126 12.9914 8.52706 12.9914C7.33287 12.9914 6.20936 12.5263 5.36486 11.6818C4.52037 10.8373 4.05534 9.71382 4.05534 8.51962C4.05534 7.32543 4.52037 6.20192 5.36486 5.35742C6.20936 4.51293 7.33287 4.0479 8.52706 4.0479C9.72126 4.0479 10.8448 4.51293 11.6893 5.35742Z" fill="white"/>
</svg>
