<svg width="224" height="80" viewBox="0 0 224 80" fill="none" xmlns="http://www.w3.org/2000/svg">
<rect width="224" height="80" fill="white"/>
<path d="M51.7158 52.1367L44.897 52.3076C43.769 52.3076 43.2051 51.9202 43.2051 51.1455C43.2051 50.7923 43.3532 50.4847 43.6494 50.2227C43.957 49.9606 44.3558 49.6644 44.8457 49.334C45.3356 48.9922 45.7799 48.5479 46.1787 48.001C46.5775 47.4427 47.0161 46.5085 47.4946 45.1982C47.9845 43.8766 48.3833 42.5892 48.6909 41.3359C49.6707 37.3597 50.3714 34.7734 50.793 33.5771C51.2259 32.3695 51.5506 31.4922 51.7671 30.9453C51.995 30.387 52.2399 29.8743 52.502 29.4072C52.7754 28.9401 53.0374 28.5299 53.2881 28.1768C53.5387 27.8236 53.835 27.5103 54.1768 27.2368C54.5186 26.952 54.8433 26.7184 55.1509 26.5361C55.4699 26.3424 55.8573 26.1772 56.313 26.0405C56.7687 25.8924 57.2074 25.7785 57.6289 25.6987C58.0505 25.619 58.5745 25.5563 59.2012 25.5107C60.1468 25.4424 61.4058 25.4082 62.978 25.4082C64.5503 25.4082 65.7181 25.4823 66.4814 25.6304C67.2448 25.7785 67.6265 26.0918 67.6265 26.5703C67.6265 26.9577 67.1878 27.4191 66.3105 27.9546C65.3307 28.5584 64.4648 29.5382 63.7129 30.894C62.904 32.3752 62.2716 33.7651 61.8159 35.064C61.3602 36.3514 61.0013 37.3882 60.7393 38.1743C60.4772 38.9604 60.1582 39.9289 59.7822 41.0796C59.4062 42.2303 59.0872 43.1873 58.8252 43.9507C57.7542 47.0155 56.2902 48.9523 54.4331 49.7612C57.3042 49.6131 59.6797 49.1061 61.5596 48.2402C62.585 47.7731 63.4622 47.3345 64.1914 46.9243C64.932 46.5142 65.758 45.9046 66.6694 45.0957C67.8657 44.0247 68.931 43.005 69.8652 42.0366C70.7995 41.0568 71.3065 40.527 71.3862 40.4473C71.6825 40.1396 72.0413 39.9858 72.4629 39.9858C72.8844 39.9858 73.2262 40.0884 73.4883 40.2935C73.7503 40.4985 73.8813 40.7663 73.8813 41.0967C73.8813 42.4069 73.4598 44.4178 72.6167 47.1294C72.3205 48.0636 72.0243 48.827 71.728 49.4194C71.4318 50.0119 71.0501 50.5417 70.583 51.0088C69.6943 51.8975 68.2645 52.3418 66.2935 52.3418L51.7158 52.1367ZM92.8853 33.4233C90.994 34.9614 89.5527 37.2458 88.5615 40.2764C88.0374 41.917 87.7754 43.5804 87.7754 45.2666C87.7754 48.2174 88.7381 49.6929 90.6636 49.6929C91.6434 49.6929 92.6574 49.2884 93.7056 48.4795C94.7537 47.6706 95.6937 46.6224 96.5254 45.335C97.3685 44.0361 98.0578 42.498 98.5933 40.7207C99.1401 38.9434 99.4136 37.166 99.4136 35.3887C99.4136 32.8822 98.9692 31.0991 98.0806 30.0396C97.1919 28.98 95.6994 28.4502 93.603 28.4502C92.4409 28.4502 91.1877 28.5755 89.8433 28.8262C88.4989 29.0768 87.3595 29.356 86.4253 29.6636C85.5024 29.9598 84.6707 30.2332 83.9302 30.4839C83.1896 30.7345 82.7624 30.8599 82.6484 30.8599C82.2269 30.8599 82.0161 30.689 82.0161 30.3472C82.0161 30.0737 82.2952 29.7205 82.8535 29.2876C83.4232 28.8433 84.2093 28.3818 85.2119 27.9033C86.2145 27.4134 87.3254 26.9577 88.5444 26.5361C91.3813 25.5563 94.1556 25.0664 96.8672 25.0664C102.074 25.0664 105.754 26.5817 107.907 29.6123C109.172 31.401 109.804 33.6113 109.804 36.2432C109.804 38.237 109.457 40.1112 108.762 41.8657C108.067 43.6089 107.098 45.1356 105.856 46.4458C104.615 47.756 103.156 48.884 101.481 49.8296C98.0977 51.7323 94.2638 52.6836 89.98 52.6836C81.5946 52.6836 77.4019 49.8182 77.4019 44.0874C77.4019 42.481 77.7493 40.9429 78.4443 39.4731C79.1393 37.992 80.0508 36.7103 81.1787 35.6279C82.318 34.5342 83.5941 33.5771 85.0068 32.7568C87.8779 31.1162 90.7604 30.2959 93.6543 30.2959C94.11 30.2959 94.4347 30.3813 94.6284 30.5522C94.8335 30.7118 94.936 30.877 94.936 31.0479C94.936 31.2188 94.9076 31.3669 94.8506 31.4922C94.805 31.6061 94.7082 31.7428 94.5601 31.9023C94.4119 32.0618 94.2809 32.1986 94.167 32.3125C93.8822 32.5632 93.4549 32.9334 92.8853 33.4233ZM136.704 28.5356C136.704 27.7951 135.741 27.4248 133.815 27.4248C132.995 27.4248 132.072 27.6868 131.047 28.2109C130.033 28.7236 129.087 29.4414 128.21 30.3643C127.333 31.2871 126.547 32.3296 125.852 33.4917C124.336 35.9982 123.579 38.5731 123.579 41.2163C123.579 43.8481 124.103 45.8989 125.151 47.3687C126.21 48.8384 127.811 49.5732 129.953 49.5732C130.135 49.5732 130.272 49.5675 130.363 49.5562C130.819 48.394 131.229 47.1864 131.594 45.9331C131.97 44.6799 132.158 43.9165 132.158 43.6431C132.158 43.3582 131.998 43.1247 131.679 42.9424C131.36 42.7601 131.007 42.6348 130.62 42.5664C129.594 42.3841 129.082 42.048 129.082 41.5581C129.082 40.9201 129.902 40.4302 131.542 40.0884C133.183 39.7466 135.137 39.5757 137.404 39.5757C139.683 39.5757 141.187 39.6839 141.916 39.9004C142.645 40.1055 143.01 40.4473 143.01 40.9258C143.01 41.2562 142.81 41.8145 142.412 42.6006C142.013 43.3867 141.358 45.2894 140.446 48.3086C139.535 51.3278 138.874 53.1507 138.464 53.7773C137.792 54.8141 136.766 55.5889 135.388 56.1016C134.021 56.6257 132.414 56.8877 130.568 56.8877C127.185 56.8877 125.493 56.5288 125.493 55.811C125.493 55.3325 125.92 54.8483 126.774 54.3584C127.754 53.7887 128.489 53.1564 128.979 52.4614C129.184 52.1538 129.383 51.8006 129.577 51.4019C128.016 51.8006 126.205 52 124.143 52C122.08 52 120.275 51.7778 118.725 51.3335C117.187 50.8778 115.962 50.2284 115.051 49.3853C113.285 47.756 112.402 45.5457 112.402 42.7544C112.402 41.1138 112.727 39.5073 113.376 37.9351C114.025 36.3628 114.903 34.9386 116.008 33.6626C117.113 32.3866 118.4 31.2074 119.87 30.125C121.34 29.0426 122.889 28.1312 124.519 27.3906C127.971 25.8411 131.383 25.0664 134.755 25.0664C138.128 25.0664 140.64 25.5734 142.292 26.5874C143.955 27.6014 144.787 29.0199 144.787 30.8428C144.787 31.9023 144.314 32.8936 143.369 33.8164C142.298 34.8646 140.617 35.3887 138.327 35.3887C137.552 35.3887 136.892 35.2804 136.345 35.064C135.308 34.6538 134.79 34.0671 134.79 33.3037C134.79 33.1328 135.109 32.3979 135.747 31.0991C136.385 29.8003 136.704 28.9458 136.704 28.5356ZM162.851 33.4233C160.96 34.9614 159.519 37.2458 158.527 40.2764C158.003 41.917 157.741 43.5804 157.741 45.2666C157.741 48.2174 158.704 49.6929 160.629 49.6929C161.609 49.6929 162.623 49.2884 163.671 48.4795C164.72 47.6706 165.66 46.6224 166.491 45.335C167.334 44.0361 168.024 42.498 168.559 40.7207C169.106 38.9434 169.379 37.166 169.379 35.3887C169.379 32.8822 168.935 31.0991 168.046 30.0396C167.158 28.98 165.665 28.4502 163.569 28.4502C162.407 28.4502 161.153 28.5755 159.809 28.8262C158.465 29.0768 157.325 29.356 156.391 29.6636C155.468 29.9598 154.637 30.2332 153.896 30.4839C153.155 30.7345 152.728 30.8599 152.614 30.8599C152.193 30.8599 151.982 30.689 151.982 30.3472C151.982 30.0737 152.261 29.7205 152.819 29.2876C153.389 28.8433 154.175 28.3818 155.178 27.9033C156.18 27.4134 157.291 26.9577 158.51 26.5361C161.347 25.5563 164.121 25.0664 166.833 25.0664C172.04 25.0664 175.72 26.5817 177.873 29.6123C179.138 31.401 179.77 33.6113 179.77 36.2432C179.77 38.237 179.423 40.1112 178.728 41.8657C178.033 43.6089 177.064 45.1356 175.822 46.4458C174.58 47.756 173.122 48.884 171.447 49.8296C168.063 51.7323 164.23 52.6836 159.946 52.6836C151.56 52.6836 147.368 49.8182 147.368 44.0874C147.368 42.481 147.715 40.9429 148.41 39.4731C149.105 37.992 150.017 36.7103 151.145 35.6279C152.284 34.5342 153.56 33.5771 154.973 32.7568C157.844 31.1162 160.726 30.2959 163.62 30.2959C164.076 30.2959 164.401 30.3813 164.594 30.5522C164.799 30.7118 164.902 30.877 164.902 31.0479C164.902 31.2188 164.873 31.3669 164.816 31.4922C164.771 31.6061 164.674 31.7428 164.526 31.9023C164.378 32.0618 164.247 32.1986 164.133 32.3125C163.848 32.5632 163.421 32.9334 162.851 33.4233Z" fill="#004EA2"/>
</svg>
